<mxfile host="app.diagrams.net" modified="2023-03-28T12:50:49.428Z" agent="Mozilla/5.0 (Windows NT 10.0; Win64; x64) AppleWebKit/537.36 (KHTML, like Gecko) Chrome/111.0.0.0 Safari/537.36" version="21.1.1" etag="O2qy1c1xze_ZpRAaYDeu" type="github">
  <diagram name="Page-1" id="b4Sz9OhCl_qAOX_zw1YK">
    <mxGraphModel>
      <root>
        <mxCell id="0" />
        <mxCell id="1" parent="0" />
      </root>
    </mxGraphModel>
  </diagram>
</mxfile>
